<svg width="17" height="26" viewBox="0 0 17 26" fill="none" xmlns="http://www.w3.org/2000/svg">
<path d="M7.2 22.4H7.6C7.8 22.6 8.1 22.7 8.4 22.7C8.7 22.7 8.9 22.6 9.2 22.4H9.6V22C9.7 21.8 9.8 21.6 9.8 21.4C9.8 21.2 9.7 21 9.6 20.8V20.5H9.2C8.9 20.1 8.6 20 8.3 20C8 20 7.7 20.1 7.4 20.4H7.2V20.7C7.1 20.9 7 21.1 7 21.3C7 21.5 7.1 21.7 7.2 21.9V22.4ZM14.8 0H1.8C0.8 0 0 0.8 0 1.8V23.9C0 24.9 0.8 25.7 1.8 25.7H14.9C15.9 25.7 16.7 24.9 16.7 23.9V1.8C16.6 0.8 15.8 0 14.8 0ZM14.8 23.8H1.8V18.8H14.8V23.8ZM14.8 17.1H1.8V1.8H14.8V17.1ZM9.8 2.8H6.8V4.6H9.8V2.8Z" fill="#BFC0C5"/>
</svg>
